<svg xmlns="http://www.w3.org/2000/svg" viewBox="0 0 100 100" width="300" height="300">
  <defs>
    <linearGradient id="coreGrad" x1="50%" y1="0%" x2="50%" y2="100%">
      <stop offset="0%" stop-color="#6366F1"/>
      <stop offset="100%" stop-color="#EC4899"/>
    </linearGradient>
    
    <filter id="softDepth">
      <feDropShadow dx="2" dy="3" stdDeviation="2" flood-opacity="0.25"/>
    </filter>
    
    <mask id="centerWave">
      <rect width="100%" height="100%" fill="white"/>
      <path d="M50 50Q60 35 70 50T90 50" stroke="black" stroke-width="10" fill="none"/>
    </mask>
  </defs>

  <!-- Centered Main Structure -->
  <g transform="translate(50 50)">
    <path d="M-15-15
             L15-15
             L25 10
             L-5 25
             L-25 5
             Z" 
          fill="url(#coreGrad)"
          filter="url(#softDepth)"
          mask="url(#centerWave)"
          transform="rotate(45)"/>
    
    <!-- Dynamic Inner Geometry -->
    <path d="M-8-8
             C5-15 15-5 8 8
             S-5 15-8 8
             C-15 5-5-5-8-8" 
          fill="none"
          stroke="#FFFFFF"
          stroke-width="0"
          stroke-linecap="round"/>
    
    <!-- Central Core -->
    <circle r="5" fill="#FFD43B" opacity="0.9">
      <animate attributeName="r" values="5;6;5" dur="2s" repeatCount="indefinite"/>
    </circle>
  </g>

  <!-- Balanced Particles -->
  <g fill="#FFFFFF" opacity="0.85">
    <circle cx="30" cy="50" r="2" transform="rotate(-30 50 50)"/>
    <circle cx="70" cy="50" r="1.5" transform="rotate(30 50 50)"/>
    <circle cx="50" cy="30" r="1.8"/>
    <circle cx="50" cy="70" r="1.8"/>
  </g>
</svg>